<svg style="display: none;" aria-hidden="true" xmlns="http://www.w3.org/2000/svg" xmlns:xlink="http://www.w3.org/1999/xlink"><symbol fill="none" viewBox="0 0 11 13" id="svg-arrow-down"><path d="M1 7L5.5 12 10 7M5.5 11.5V1.5"/></symbol><symbol fill="none" viewBox="0 0 10 7" id="svg-arrow-dropdown"><path d="M1 1L5 5.5L9 1"/></symbol><symbol fill="none" viewBox="0 0 13 11" id="svg-arrow-right"><path d="M6.75.75L11.75 5.25 6.75 9.75M11.25 5.25L1.25 5.25"/></symbol><symbol fill="none" viewBox="0 0 11 13" id="svg-arrow-up"><path d="M1 6L5.5 1 10 6M5.5 1.5V11.5"/></symbol><symbol fill="none" viewBox="0 0 23 19" id="svg-compare"><path d="M17 1L22 5.5 17 10M6 9L1 13.5 6 18M21 5.5L9 5.5M2 13.5L14 13.5"/></symbol><symbol fill="none" viewBox="0 0 10 22" id="svg-fb"><path d="M2.95596 21.1667V10.4456H0V7.08577H2.95596V4.60813C2.95596 1.73255 4.74485 0.166748 7.35872 0.166748C8.61085 0.166748 9.68626 0.258581 10 0.299396V3.30484L8.18749 3.30577C6.76621 3.30577 6.49121 3.96901 6.49121 4.94114V7.0867H9.88093L9.43961 10.4465H6.49121V21.1667H2.95596Z" clip-rule="evenodd"/></symbol><symbol fill="none" viewBox="0 0 17 17" id="svg-insta"><path d="M4.99588 0.051C5.90254 0.00991667 6.19154 0 8.5 0C10.8085 0 11.0982 0.00991667 12.0055 0.0517083C15.0953 0.193375 16.8102 1.91179 16.949 4.99588C16.9901 5.90254 17 6.19154 17 8.5C17 10.8085 16.9901 11.0982 16.9483 12.0048C16.8088 15.0946 15.0889 16.8073 12.0048 16.949C11.0982 16.9901 10.8085 17 8.5 17C6.19154 17 5.90254 16.9901 4.99517 16.949C1.90542 16.8073 0.192667 15.0918 0.051 12.0048C0.00991667 11.0982 0 10.8085 0 8.5C0 6.19154 0.00991667 5.90254 0.0517083 4.99517C0.193375 1.90542 1.90896 0.192667 4.99588 0.051ZM3 8.49955C3 5.46239 5.46259 3 8.5 3C11.5374 3 14 5.46239 14 8.49955C14 11.5376 11.5374 14 8.5 14C5.46259 14 3 11.5367 3 8.49955ZM13.501 2C12.6719 2 12 2.67188 12 3.5C12 4.32812 12.6719 5 13.501 5C14.3292 5 15 4.32812 15 3.5C15 2.67188 14.3292 2 13.501 2ZM5 8.5C5 10.4338 6.56712 12 8.5 12C10.4329 12 12 10.4338 12 8.5C12 6.56712 10.4329 5 8.5 5C6.56712 5 5 6.56712 5 8.5Z" clip-rule="evenodd"/></symbol><symbol fill="none" viewBox="0 0 15 14" id="svg-location"><path d="M2.36543 1.6302L13.0164 6.54602C13.4037 6.72477 13.4037 7.27523 13.0164 7.45398L2.36543 12.3698C1.9288 12.5713 1.48722 12.1005 1.71626 11.6777L4.12101 7.23814C4.20148 7.08958 4.20148 6.91042 4.12101 6.76186L1.71626 2.32232C1.48722 1.89947 1.9288 1.42868 2.36543 1.6302Z"/></symbol><symbol fill="none" viewBox="0 0 13 17" id="svg-pin"><g clip-path="url(#clip0_2_60)"><circle cx="6.5" cy="5.5" r="4.75"/><path d="M6.5 11V13.5M1 15.5C5.27706 16.4903 7.74163 16.5677 12 15.5"/></g></symbol><symbol fill="none" viewBox="0 0 16 15" id="svg-plus"><path d="M1.5 7.5H14.5M8 14L8 1"/></symbol><symbol fill="none" viewBox="0 0 21 20" id="svg-santeh"><path d="M6.36587 8.85628C6.32188 8.20802 6.56028 7.5724 7.01972 7.11296L8.47094 5.66175C8.93037 5.20231 9.56599 4.96391 10.2143 5.0079L12.6362 5.17224C14.1353 5.27397 14.8177 7.0932 13.7552 8.15566L9.51364 12.3972C8.45117 13.4597 6.63194 12.7774 6.53022 11.2783L6.36587 8.85628zM13.3813 11.8823L14.474 12.9749M10.7505 14.3422L11.4576 15.7565M15.7006 9.39262L17.1149 10.0997M8 6L6.12132 4.12132C4.23143 2.23143 1 3.56993 1 6.24264V13"/></symbol><symbol fill="none" viewBox="0 0 17 17" id="svg-search"><circle cx="7" cy="7" r="6.25"/><path d="M12 12L16 16"/></symbol><symbol fill="none" viewBox="0 0 23 21" id="svg-star"><path d="M12.9231 2.37165C12.6177 0.809122 10.3823 0.809114 10.0769 2.37165L8.9728 8.0216L3.25818 7.32575C1.67777 7.13331 0.986969 9.25936 2.37867 10.0326L7.4109 12.8286L4.98319 18.0485C4.3118 19.4921 6.12031 20.8061 7.28579 19.7215L11.5 15.7995L15.7142 19.7215C16.8797 20.8061 18.6882 19.4921 18.0168 18.0485L15.5891 12.8286L20.6213 10.0326C22.013 9.25936 21.3222 7.13331 19.7418 7.32575L14.0272 8.0216L12.9231 2.37165Z"/></symbol><symbol fill="none" viewBox="0 0 20 25" id="svg-tile"><rect x=".75" y="-.75" rx="1.25" transform="matrix(1 0 0 -1 7 14.5)"/><rect x=".75" y="-.75" rx="1.25" transform="matrix(1 0 0 -1 2 18.5)"/></symbol><symbol fill="none" viewBox="0 0 21 12" id="svg-vk"><path d="M19.8358 1.26716C19.9718 0.824992 19.8358 0.5 19.1883 0.5H17.0474C16.503 0.5 16.252 0.780716 16.1159 1.0902C16.1159 1.0902 15.0272 3.67732 13.4848 5.35774C12.9858 5.84418 12.759 5.99893 12.4868 5.99893C12.3507 5.99893 12.1537 5.84418 12.1537 5.40201V1.26716C12.1537 0.736439 11.9958 0.5 11.542 0.5H8.17765C7.83739 0.5 7.63277 0.746278 7.63277 0.979736C7.63277 1.48273 8.40398 1.59886 8.4835 3.01392V6.08748C8.4835 6.76132 8.35871 6.88356 8.0865 6.88356C7.36072 6.88356 5.59518 4.28482 4.54809 1.31144C4.34287 0.733458 4.13703 0.5 3.58986 0.5H1.44889C0.837185 0.5 0.714844 0.780716 0.714844 1.0902C0.714844 1.64299 1.44063 4.38485 4.09436 8.01119C5.86357 10.4875 8.35627 11.83 10.6245 11.83C11.9854 11.83 12.1537 11.5318 12.1537 11.0183V9.14658C12.1537 8.55026 12.2826 8.4313 12.7136 8.4313C13.0311 8.4313 13.5755 8.58604 14.8457 9.78001C16.2974 11.1952 16.5368 11.83 17.3532 11.83H19.4942C20.1059 11.83 20.4118 11.5318 20.2353 10.9434C20.0423 10.357 19.3491 9.50616 18.4295 8.49764C17.9305 7.92264 17.1819 7.30367 16.9552 6.99403C16.6375 6.59599 16.7284 6.41903 16.9552 6.06527C16.9552 6.06527 19.5636 2.48335 19.8358 1.26716Z" clip-rule="evenodd"/></symbol><symbol fill="none" viewBox="0 0 21 14" id="svg-yt"><path d="M19.8954 1.08424C20.2197 1.39382 20.4533 1.77888 20.5728 2.20112C21.0208 3.76578 20.9998 7.02798 20.9998 7.02798C20.9998 7.02798 20.9967 10.2722 20.5623 11.8359C20.441 12.2577 20.2061 12.6421 19.881 12.9511C19.5558 13.26 19.1516 13.4828 18.7083 13.5973C17.0651 14.007 10.4915 14 10.4915 14C10.4915 14 3.93577 13.993 2.27584 13.5634C1.37558 13.3326 0.667331 12.6561 0.426002 11.7999C-0.00419384 10.2512 1.53554e-06 6.99001 1.53554e-06 6.99001C1.53554e-06 6.99001 0.0042004 3.74479 0.437544 2.18014C0.560607 1.75762 0.795666 1.37232 1.12015 1.06123C1.44464 0.750141 1.84767 0.523704 2.29053 0.403661C3.93472 -0.00698662 10.5073 7.59e-06 10.5073 7.59e-06C10.5073 7.59e-06 17.0809 0.00700137 18.724 0.436633C19.1672 0.551395 19.571 0.774674 19.8954 1.08424ZM15 7L8 3V11L15 7Z" clip-rule="evenodd"/></symbol></svg>