<svg width="17" height="17" viewBox="0 0 17 17" fill="none" xmlns="http://www.w3.org/2000/svg">
<path fill-rule="evenodd" clip-rule="evenodd" d="M4.99588 0.051C5.90254 0.00991667 6.19154 0 8.5 0C10.8085 0 11.0982 0.00991667 12.0055 0.0517083C15.0953 0.193375 16.8102 1.91179 16.949 4.99588C16.9901 5.90254 17 6.19154 17 8.5C17 10.8085 16.9901 11.0982 16.9483 12.0048C16.8088 15.0946 15.0889 16.8073 12.0048 16.949C11.0982 16.9901 10.8085 17 8.5 17C6.19154 17 5.90254 16.9901 4.99517 16.949C1.90542 16.8073 0.192667 15.0918 0.051 12.0048C0.00991667 11.0982 0 10.8085 0 8.5C0 6.19154 0.00991667 5.90254 0.0517083 4.99517C0.193375 1.90542 1.90896 0.192667 4.99588 0.051ZM3 8.49955C3 5.46239 5.46259 3 8.5 3C11.5374 3 14 5.46239 14 8.49955C14 11.5376 11.5374 14 8.5 14C5.46259 14 3 11.5367 3 8.49955ZM13.501 2C12.6719 2 12 2.67188 12 3.5C12 4.32812 12.6719 5 13.501 5C14.3292 5 15 4.32812 15 3.5C15 2.67188 14.3292 2 13.501 2ZM5 8.5C5 10.4338 6.56712 12 8.5 12C10.4329 12 12 10.4338 12 8.5C12 6.56712 10.4329 5 8.5 5C6.56712 5 5 6.56712 5 8.5Z"/>
</svg>
