<svg width="21" height="12" viewBox="0 0 21 12" fill="none" xmlns="http://www.w3.org/2000/svg">
<path fill-rule="evenodd" clip-rule="evenodd" d="M19.8358 1.26716C19.9718 0.824992 19.8358 0.5 19.1883 0.5H17.0474C16.503 0.5 16.252 0.780716 16.1159 1.0902C16.1159 1.0902 15.0272 3.67732 13.4848 5.35774C12.9858 5.84418 12.759 5.99893 12.4868 5.99893C12.3507 5.99893 12.1537 5.84418 12.1537 5.40201V1.26716C12.1537 0.736439 11.9958 0.5 11.542 0.5H8.17765C7.83739 0.5 7.63277 0.746278 7.63277 0.979736C7.63277 1.48273 8.40398 1.59886 8.4835 3.01392V6.08748C8.4835 6.76132 8.35871 6.88356 8.0865 6.88356C7.36072 6.88356 5.59518 4.28482 4.54809 1.31144C4.34287 0.733458 4.13703 0.5 3.58986 0.5H1.44889C0.837185 0.5 0.714844 0.780716 0.714844 1.0902C0.714844 1.64299 1.44063 4.38485 4.09436 8.01119C5.86357 10.4875 8.35627 11.83 10.6245 11.83C11.9854 11.83 12.1537 11.5318 12.1537 11.0183V9.14658C12.1537 8.55026 12.2826 8.4313 12.7136 8.4313C13.0311 8.4313 13.5755 8.58604 14.8457 9.78001C16.2974 11.1952 16.5368 11.83 17.3532 11.83H19.4942C20.1059 11.83 20.4118 11.5318 20.2353 10.9434C20.0423 10.357 19.3491 9.50616 18.4295 8.49764C17.9305 7.92264 17.1819 7.30367 16.9552 6.99403C16.6375 6.59599 16.7284 6.41903 16.9552 6.06527C16.9552 6.06527 19.5636 2.48335 19.8358 1.26716Z"/>
</svg>
