<svg width="21" height="14" viewBox="0 0 21 14" fill="none" xmlns="http://www.w3.org/2000/svg">
<path fill-rule="evenodd" clip-rule="evenodd" d="M19.8954 1.08424C20.2197 1.39382 20.4533 1.77888 20.5728 2.20112C21.0208 3.76578 20.9998 7.02798 20.9998 7.02798C20.9998 7.02798 20.9967 10.2722 20.5623 11.8359C20.441 12.2577 20.2061 12.6421 19.881 12.9511C19.5558 13.26 19.1516 13.4828 18.7083 13.5973C17.0651 14.007 10.4915 14 10.4915 14C10.4915 14 3.93577 13.993 2.27584 13.5634C1.37558 13.3326 0.667331 12.6561 0.426002 11.7999C-0.00419384 10.2512 1.53554e-06 6.99001 1.53554e-06 6.99001C1.53554e-06 6.99001 0.0042004 3.74479 0.437544 2.18014C0.560607 1.75762 0.795666 1.37232 1.12015 1.06123C1.44464 0.750141 1.84767 0.523704 2.29053 0.403661C3.93472 -0.00698662 10.5073 7.59e-06 10.5073 7.59e-06C10.5073 7.59e-06 17.0809 0.00700137 18.724 0.436633C19.1672 0.551395 19.571 0.774674 19.8954 1.08424ZM15 7L8 3V11L15 7Z"/>
</svg>
