<svg width="136" height="42" viewBox="0 0 136 42" fill="none" xmlns="http://www.w3.org/2000/svg">
<path d="M84.4416 18.0344C84.4383 18.05 84.4368 18.066 84.4373 18.082L84.6372 18.0761C84.4373 18.082 84.4373 18.0821 84.4373 18.0822L84.4373 18.0829L84.4374 18.0854L84.4377 18.0954L84.4389 18.1349L84.4434 18.2893L84.4609 18.8779L84.5237 21.0005L84.7199 27.6373C84.8663 32.595 85.023 37.9124 85.0642 39.3523C85.0726 39.6493 85.1877 39.9463 85.4522 40.1383C85.6928 40.3131 86.0658 40.5251 86.5239 40.5868C86.9891 40.6495 87.5271 40.5549 88.0816 40.1393C88.3408 39.945 88.4642 39.6454 88.4771 39.3461C88.521 38.3215 88.579 36.4646 88.6446 34.3599C88.6848 33.0719 88.7278 31.6911 88.7724 30.3514C88.8311 28.5859 88.8923 26.8913 88.9529 25.5721C88.9832 24.9124 89.0133 24.3476 89.0428 23.9151C89.0724 23.4807 89.1006 23.1948 89.125 23.0765C89.8708 20.131 91.101 18.3478 92.3093 17.1851C93.2063 16.3222 94.0821 15.8045 94.7755 15.3947C95.0257 15.2468 95.2522 15.113 95.4473 14.982L95.4479 14.9817C95.8716 14.6951 96.106 14.3336 96.178 13.9525C96.2493 13.5746 96.157 13.199 95.9681 12.8868C95.5957 12.2715 94.8058 11.8473 94.0224 12.1519L94.0214 12.1523L87.0119 14.9234L87.0119 14.9232L87.0025 14.9274C86.4529 15.1778 85.9072 15.5009 85.4507 15.992C84.9925 16.485 84.633 17.1378 84.4416 18.0344Z" fill="black" stroke="black" stroke-width="0.4" stroke-linejoin="round"/>
<path d="M46.7819 18.3504L46.7819 18.3504L46.7821 18.3462L46.8427 16.7369C46.8696 16.0223 46.5552 15.241 45.8174 14.9731C45.3459 14.8018 44.8132 14.7155 44.1675 14.7155C43.5702 14.7155 43.0665 14.7939 42.6216 14.9438C41.8597 15.2005 41.5376 16.0033 41.5742 16.7332L41.6531 18.3054L41.6535 18.3123L41.6535 18.3129L41.6536 18.3158C41.6618 18.5226 42.3399 35.6847 42.4952 39.1354C42.5147 39.5688 42.6839 40.0148 43.0961 40.2647C43.5823 40.5595 44.3996 40.8497 45.2955 40.3283C45.741 40.069 45.9214 39.5889 45.9411 39.1258C45.9871 38.0395 46.0778 35.6901 46.1841 32.9369C46.4005 27.3301 46.6815 20.0488 46.7819 18.3504ZM46.9164 7.71059C46.9164 6.25818 45.7147 5.0981 44.2346 5.0981C42.7544 5.0981 41.5528 6.25818 41.5528 7.71059C41.5528 9.16301 42.7544 10.3231 44.2346 10.3231C45.7147 10.3231 46.9164 9.16301 46.9164 7.71059Z" fill="black" stroke="black" stroke-width="0.4" stroke-linejoin="round"/>
<path d="M2.89034 1.31954L2.89031 1.31947C2.86783 1.25467 2.82278 1.20617 2.79049 1.17598C2.75379 1.14167 2.70956 1.10924 2.66227 1.07945C2.56726 1.0196 2.4449 0.96099 2.30835 0.913024C2.03863 0.818275 1.68377 0.754809 1.34878 0.831428C0.883705 0.937802 0.603796 1.36115 0.475278 1.61081C0.368963 1.81734 0.369768 2.02434 0.423862 2.22449C1.30246 5.4754 4.11911 13.9496 6.87488 21.9339C8.25333 25.9278 9.6175 29.8018 10.7179 32.8427C11.8157 35.8762 12.6562 38.0954 12.9853 38.7684C14.5356 41.9865 19.3085 41.9786 20.9233 38.7709L20.9235 38.7706C21.2525 38.1145 22.0802 35.9065 23.1628 32.8841C24.2483 29.8538 25.5961 25.9874 26.9682 21.9991C29.7122 14.0231 32.5546 5.55604 33.591 2.3113C33.6658 2.07696 33.6693 1.83068 33.5326 1.59279C33.3927 1.34933 33.1166 0.968688 32.7024 0.865755C32.4386 0.789786 32.1154 0.785475 31.7392 0.924143C31.2639 1.09933 30.9887 1.53839 30.8413 1.95827C27.4798 11.5339 22.257 24.2103 18.3509 32.9215C18.1058 33.3973 17.8611 33.7429 17.623 33.9678C17.3851 34.1926 17.166 34.2861 16.966 34.2876C16.7662 34.2891 16.5457 34.1992 16.3043 33.9756C16.0626 33.7518 15.812 33.4045 15.5587 32.921C11.6031 24.0898 6.20748 10.8954 2.89034 1.31954Z" fill="black" stroke="black" stroke-width="0.4" stroke-linejoin="round"/>
<path d="M115.26 24.8296L124.781 25.351L132.421 40.6695C132.434 40.7085 132.456 40.7374 132.469 40.7532C132.484 40.7715 132.501 40.7882 132.517 40.8029C132.549 40.8323 132.589 40.8624 132.633 40.8916C132.722 40.9505 132.841 41.0139 132.977 41.0677C133.244 41.1735 133.609 41.253 133.968 41.1569C134.232 41.092 134.437 40.9148 134.583 40.7418C134.731 40.5662 134.835 40.3762 134.891 40.2536C134.95 40.1278 134.952 40.0057 134.92 39.8849C134.085 36.7455 131.262 28.2532 128.488 20.2176C127.101 16.1979 125.725 12.2896 124.614 9.2177C123.506 6.15226 122.657 3.90568 122.326 3.22161C120.776 0.00318062 116.003 0.0108294 114.388 3.21839C114.051 3.88179 113.221 6.08691 112.137 9.1018C111.051 12.1253 109.705 15.981 108.334 19.9605C105.593 27.9189 102.754 36.3756 101.702 39.6631C101.618 39.9278 101.625 40.2198 101.793 40.4752C101.949 40.7137 102.229 41.0447 102.642 41.1563C102.647 41.1575 102.651 41.1586 102.656 41.1595C102.975 41.2215 103.401 41.2287 103.921 40.9515C104.163 40.8229 104.316 40.5994 104.397 40.3657C107.722 30.7566 113.046 17.9044 116.994 9.10063C117.239 8.62489 117.484 8.27931 117.722 8.05438C117.96 7.82958 118.179 7.73612 118.379 7.73459C118.579 7.73306 118.799 7.82294 119.041 8.04658C119.282 8.27028 119.533 8.6173 119.786 9.10043C121.26 12.4716 122.399 15.0852 123.187 16.9132C123.581 17.8279 123.886 18.5453 124.102 19.0622C124.32 19.5854 124.44 19.8908 124.47 19.9917L124.47 19.9917L124.471 19.9965C124.482 20.0293 124.492 20.0614 124.502 20.0928C124.574 20.3151 124.635 20.5049 124.677 20.6706C124.727 20.8622 124.743 20.9969 124.731 21.0924C124.721 21.1741 124.692 21.222 124.63 21.261C124.555 21.3085 124.419 21.3503 124.179 21.3658L124.177 21.366L114.988 22.0506L114.988 22.0505L114.982 22.0511C114.229 22.1282 113.757 22.7895 113.742 23.4355C113.735 23.7644 113.844 24.0996 114.1 24.3613C114.356 24.6229 114.742 24.7943 115.257 24.8295L115.26 24.8296Z" fill="black" stroke="black" stroke-width="0.4" stroke-linejoin="round"/>
<path d="M72.7469 11.4677L72.747 11.4677C73.2825 11.256 73.7662 11.2608 74.1651 11.4243C74.5617 11.5869 74.8552 11.8985 75.0266 12.266C75.3669 12.9954 75.2405 13.9846 74.4467 14.5545C74.4466 14.5545 74.4464 14.5546 74.4463 14.5547L74.3297 14.3922C74.0993 14.559 73.8159 14.7314 73.4948 14.9266C71.6194 16.0671 68.4601 17.9883 67.0856 24.14L72.7469 11.4677ZM72.7469 11.4677L67.4096 13.5803C67.3719 12.1285 67.3974 7.66338 67.4118 5.60245C67.4168 4.89212 67.0957 4.12923 66.3854 3.83158C65.9689 3.65707 65.5045 3.56416 64.8721 3.56416C64.2553 3.56416 63.7988 3.63849 63.3941 3.78287C62.6403 4.05183 62.294 4.84813 62.3019 5.58245C62.3177 7.0598 62.3379 8.53564 62.358 10.0111C62.3825 11.8053 62.407 13.5989 62.4238 15.3942C61.7133 15.6855 61.2177 16.3769 61.2177 17.1959C61.2177 17.5189 61.2915 17.8137 61.4436 18.0747L61.4914 18.1676L61.5417 18.2654C61.7958 18.7595 62.4599 20.2958 62.6265 23.4637C62.7865 28.6915 62.9466 33.9206 63.1651 39.1216C63.1866 39.6337 63.3858 40.1998 63.9036 40.4647C64.3362 40.686 64.967 40.8477 65.6615 40.5203C66.2438 40.2459 66.4567 39.599 66.481 39.0389C66.5482 37.4844 66.706 33.9869 66.8686 30.766C66.9499 29.1554 67.0324 27.6146 67.1054 26.4205C67.1418 25.8234 67.1759 25.3137 67.2062 24.9258C67.2366 24.5358 67.2624 24.2813 67.2815 24.1806L72.7469 11.4677Z" fill="black" stroke="black" stroke-width="0.4" stroke-linejoin="round"/>
</svg>
